<svg width="24" height="24" viewBox="0 0 24 24" fill="none" xmlns="http://www.w3.org/2000/svg">
<circle cx="12" cy="12" r="12" fill="#E6E6E6"/>
<path d="M15.5332 13.1582C15.4668 14.0762 15.127 14.7988 14.5137 15.3262C13.9043 15.8535 13.0996 16.1172 12.0996 16.1172C11.0059 16.1172 10.1445 15.75 9.51562 15.0156C8.89062 14.2773 8.57812 13.2656 8.57812 11.9805V11.459C8.57812 10.6387 8.72266 9.91602 9.01172 9.29102C9.30078 8.66602 9.71289 8.1875 10.248 7.85547C10.7871 7.51953 11.4121 7.35156 12.123 7.35156C13.1074 7.35156 13.9004 7.61523 14.502 8.14258C15.1035 8.66992 15.4512 9.41016 15.5449 10.3633H13.7871C13.7441 9.8125 13.5898 9.41406 13.3242 9.16797C13.0625 8.91797 12.6621 8.79297 12.123 8.79297C11.5371 8.79297 11.0977 9.00391 10.8047 9.42578C10.5156 9.84375 10.3672 10.4941 10.3594 11.377V12.0215C10.3594 12.9434 10.498 13.6172 10.7754 14.043C11.0566 14.4688 11.498 14.6816 12.0996 14.6816C12.6426 14.6816 13.0469 14.5586 13.3125 14.3125C13.582 14.0625 13.7363 13.6777 13.7754 13.1582H15.5332Z" fill="#4C4C4C"/>
</svg>
