<svg width="24" height="24" viewBox="0 0 24 24" fill="none" xmlns="http://www.w3.org/2000/svg">
<circle cx="12" cy="12" r="12" fill="#FF6F61"/>
<path d="M8.92969 16V7.46875H11.918C12.9531 7.46875 13.7383 7.66797 14.2734 8.06641C14.8086 8.46094 15.0762 9.04102 15.0762 9.80664C15.0762 10.2246 14.9688 10.5938 14.7539 10.9141C14.5391 11.2305 14.2402 11.4629 13.8574 11.6113C14.2949 11.7207 14.6387 11.9414 14.8887 12.2734C15.1426 12.6055 15.2695 13.0117 15.2695 13.4922C15.2695 14.3125 15.0078 14.9336 14.4844 15.3555C13.9609 15.7773 13.2148 15.9922 12.2461 16H8.92969ZM10.6875 12.2852V14.5879H12.1934C12.6074 14.5879 12.9297 14.4902 13.1602 14.2949C13.3945 14.0957 13.5117 13.8223 13.5117 13.4746C13.5117 12.6934 13.1074 12.2969 12.2988 12.2852H10.6875ZM10.6875 11.043H11.9883C12.875 11.0273 13.3184 10.6738 13.3184 9.98242C13.3184 9.5957 13.2051 9.31836 12.9785 9.15039C12.7559 8.97852 12.4023 8.89258 11.918 8.89258H10.6875V11.043Z" fill="white"/>
</svg>
