<svg width="16" height="14" viewBox="0 0 16 14" fill="none" xmlns="http://www.w3.org/2000/svg">
<path d="M15 11.7188V13C15 13.2812 14.9036 13.5182 14.7109 13.7109C14.5182 13.9036 14.2839 14 14.0078 14C13.7318 14 13.4948 13.9036 13.2969 13.7109C13.099 13.5182 13 13.2812 13 13V12H3V13C3 13.2812 2.90365 13.5182 2.71094 13.7109C2.51823 13.9036 2.28385 14 2.00781 14C1.73177 14 1.49479 13.9036 1.29688 13.7109C1.09896 13.5182 1 13.2812 1 13V11.7188C0.697917 11.5417 0.455729 11.3021 0.273438 11C0.0911458 10.6979 0 10.3646 0 10V7C0 6.70833 0.119792 6.3724 0.359375 5.99219C0.598958 5.61198 0.901042 5.25 1.26562 4.90625L2 2C2 1.44792 2.19531 0.976562 2.58594 0.585938C2.97656 0.195312 3.44792 0 4 0H12C12.5521 0 13.0234 0.195312 13.4141 0.585938C13.8047 0.976562 14 1.44792 14 2L14.7344 4.90625C15.099 5.25 15.401 5.61198 15.6406 5.99219C15.8802 6.3724 16 6.70833 16 7V10C16 10.3646 15.9089 10.6979 15.7266 11C15.5443 11.3021 15.3021 11.5417 15 11.7188ZM2 9.00781C2 9.28385 2.09635 9.51823 2.28906 9.71094C2.48177 9.90365 2.71615 10 2.99219 10C3.26823 10 3.50521 9.90365 3.70312 9.71094C3.90104 9.51823 4 9.28385 4 9.00781C4 8.73177 3.90104 8.49479 3.70312 8.29688C3.50521 8.09896 3.26823 8 2.99219 8C2.71615 8 2.48177 8.09896 2.28906 8.29688C2.09635 8.49479 2 8.73177 2 9.00781ZM12.5 3C12.5 2.72917 12.4036 2.49479 12.2109 2.29688C12.0182 2.09896 11.7812 2 11.5 2H4.5C4.22917 2 3.99479 2.09896 3.79688 2.29688C3.59896 2.49479 3.5 2.72917 3.5 3L3 5C3 5.28125 3.09635 5.51823 3.28906 5.71094C3.48177 5.90365 3.71875 6 4 6H12C12.2812 6 12.5182 5.90365 12.7109 5.71094C12.9036 5.51823 13 5.28125 13 5L12.5 3ZM13.0078 8C12.7318 8 12.4948 8.09896 12.2969 8.29688C12.099 8.49479 12 8.73177 12 9.00781C12 9.28385 12.099 9.51823 12.2969 9.71094C12.4948 9.90365 12.7318 10 13.0078 10C13.2839 10 13.5182 9.90365 13.7109 9.71094C13.9036 9.51823 14 9.28385 14 9.00781C14 8.73177 13.9036 8.49479 13.7109 8.29688C13.5182 8.09896 13.2839 8 13.0078 8Z" fill="#FF7466"/>
</svg>
