<svg width="24" height="20" viewBox="0 0 24 20" fill="none" xmlns="http://www.w3.org/2000/svg">
<path d="M22.5 16.7411V18.5714C22.5 18.9732 22.3555 19.3118 22.0664 19.5871C21.7773 19.8624 21.4258 20 21.0117 20C20.5977 20 20.2422 19.8624 19.9453 19.5871C19.6484 19.3118 19.5 18.9732 19.5 18.5714V17.1429H4.5V18.5714C4.5 18.9732 4.35547 19.3118 4.06641 19.5871C3.77734 19.8624 3.42578 20 3.01172 20C2.59766 20 2.24219 19.8624 1.94531 19.5871C1.64844 19.3118 1.5 18.9732 1.5 18.5714V16.7411C1.04688 16.4881 0.683594 16.1458 0.410156 15.7143C0.136719 15.2827 0 14.8065 0 14.2857V10C0 9.58333 0.179688 9.10342 0.539062 8.56027C0.898438 8.01711 1.35156 7.5 1.89844 7.00893L3 2.85714C3 2.06845 3.29297 1.39509 3.87891 0.837054C4.46484 0.279018 5.17188 0 6 0H18C18.8281 0 19.5352 0.279018 20.1211 0.837054C20.707 1.39509 21 2.06845 21 2.85714L22.1016 7.00893C22.6484 7.5 23.1016 8.01711 23.4609 8.56027C23.8203 9.10342 24 9.58333 24 10V14.2857C24 14.8065 23.8633 15.2827 23.5898 15.7143C23.3164 16.1458 22.9531 16.4881 22.5 16.7411ZM3 12.8683C3 13.2626 3.14453 13.5975 3.43359 13.8728C3.72266 14.1481 4.07422 14.2857 4.48828 14.2857C4.90234 14.2857 5.25781 14.1481 5.55469 13.8728C5.85156 13.5975 6 13.2626 6 12.8683C6 12.474 5.85156 12.1354 5.55469 11.8527C5.25781 11.5699 4.90234 11.4286 4.48828 11.4286C4.07422 11.4286 3.72266 11.5699 3.43359 11.8527C3.14453 12.1354 3 12.474 3 12.8683ZM18.75 4.28571C18.75 3.89881 18.6055 3.56399 18.3164 3.28125C18.0273 2.99851 17.6719 2.85714 17.25 2.85714H6.75C6.34375 2.85714 5.99219 2.99851 5.69531 3.28125C5.39844 3.56399 5.25 3.89881 5.25 4.28571L4.5 7.14286C4.5 7.54464 4.64453 7.88318 4.93359 8.15848C5.22266 8.43378 5.57812 8.57143 6 8.57143H18C18.4219 8.57143 18.7773 8.43378 19.0664 8.15848C19.3555 7.88318 19.5 7.54464 19.5 7.14286L18.75 4.28571ZM19.5117 11.4286C19.0977 11.4286 18.7422 11.5699 18.4453 11.8527C18.1484 12.1354 18 12.474 18 12.8683C18 13.2626 18.1484 13.5975 18.4453 13.8728C18.7422 14.1481 19.0977 14.2857 19.5117 14.2857C19.9258 14.2857 20.2773 14.1481 20.5664 13.8728C20.8555 13.5975 21 13.2626 21 12.8683C21 12.474 20.8555 12.1354 20.5664 11.8527C20.2773 11.5699 19.9258 11.4286 19.5117 11.4286Z" fill="#FF7466"/>
</svg>
