<svg width="14" height="12" viewBox="0 0 14 12" fill="none" xmlns="http://www.w3.org/2000/svg">
<path d="M12.9647 0.199162C12.8334 0.0716388 12.6554 0 12.4698 0C12.2842 0 12.1062 0.0716388 11.9749 0.199162L1.036 10.8305C0.969143 10.8932 0.915815 10.9683 0.879129 11.0513C0.842443 11.1343 0.823132 11.2235 0.822325 11.3139C0.821517 11.4042 0.839228 11.4938 0.874425 11.5773C0.909621 11.6609 0.961599 11.7369 1.02732 11.8008C1.09305 11.8646 1.1712 11.9151 1.25723 11.9493C1.34326 11.9835 1.43544 12.0008 1.52838 12C1.62133 11.9992 1.71318 11.9804 1.79858 11.9448C1.88399 11.9091 1.96123 11.8573 2.0258 11.7923L12.964 1.16101C13.0952 1.03345 13.169 0.860458 13.169 0.680085C13.169 0.499713 13.0952 0.326724 12.964 0.199162H12.9647ZM2.1756 8.37554L3.9676 6.63414C3.9165 6.42505 3.88997 6.211 3.8885 5.99609C3.8885 4.37782 5.2815 3.06497 7 3.06497C7.2002 3.06497 7.3948 3.08674 7.5845 3.12075L8.4266 2.30312C7.95506 2.2272 7.47797 2.18853 7 2.18748C2.408 2.1868 0 5.47299 0 5.99609C0 6.28383 0.7399 7.41777 2.1756 8.37486V8.37554ZM11.8265 3.61868L10.0331 5.36007C10.0814 5.5655 10.1108 5.77705 10.1108 5.99609C10.1108 7.61436 8.7185 8.92584 7 8.92584C6.8012 8.92584 6.608 8.90407 6.4197 8.87074L5.5769 9.68906C6.0263 9.7598 6.4981 9.8047 7 9.8047C11.592 9.8047 14 6.51715 14 5.99609C14 5.70767 13.2608 4.57441 11.8265 3.61868Z" fill="#999999"/>
</svg>
