<svg width="14" height="8" viewBox="0 0 14 8" fill="none" xmlns="http://www.w3.org/2000/svg">
<path d="M7 0C2.4073 0 0 3.45143 0 4C0 4.54714 2.4073 8 7 8C11.592 8 14 4.54714 14 4C14 3.45143 11.592 0 7 0ZM7 7.07643C5.2815 7.07643 3.8885 5.69929 3.8885 4C3.8885 2.30071 5.2815 0.922143 7 0.922143C8.7185 0.922143 10.1108 2.30071 10.1108 4C10.1108 5.69929 8.7185 7.07643 7 7.07643ZM7 4C6.7151 3.68071 7.4641 2.46143 7 2.46143C6.1404 2.46143 5.4439 3.15071 5.4439 4C5.4439 4.84929 6.1404 5.53857 7 5.53857C7.8589 5.53857 8.5561 4.84929 8.5561 4C8.5561 3.60929 7.2422 4.27071 7 4Z" fill="#999999"/>
</svg>
