<svg width="16" height="16" viewBox="0 0 16 16" fill="none" xmlns="http://www.w3.org/2000/svg">
<path d="M16 1.52011C15.9998 1.12699 15.8693 0.749252 15.6359 0.466299C15.4025 0.183346 15.0843 0.0172097 14.7483 0.00280638V0H1.36882V0.00420968C1.34562 0.0028065 1.32262 0 1.29922 0C1.03035 0.000204981 0.768152 0.0978754 0.548731 0.27956C0.329309 0.461244 0.163462 0.718005 0.0740285 1.01448C-0.0154046 1.31095 -0.0240235 1.63256 0.0493591 1.935C0.122742 2.23744 0.274516 2.50584 0.483778 2.70323L6.5121 9.75164L6.5119 14.1013V14.1373H6.5149C6.51995 14.2714 6.55403 14.4018 6.61395 14.5164C6.67388 14.6309 6.75768 14.7258 6.85752 14.7921L6.85571 14.7958L8.4302 15.8587C8.4434 15.8695 8.458 15.8772 8.4718 15.8868L8.4774 15.8906V15.8903C8.57781 15.9581 8.69301 16 8.81742 16C8.90715 16 8.99601 15.9794 9.07891 15.9393C9.16182 15.8991 9.23715 15.8403 9.3006 15.7661C9.36405 15.6919 9.41437 15.6038 9.4487 15.5069C9.48303 15.4099 9.50068 15.306 9.50066 15.2011C9.50066 15.1801 9.49665 15.1602 9.49545 15.1396H9.50066V9.75819L15.5844 2.645L15.5784 2.63798C15.7112 2.49614 15.8173 2.32347 15.8899 2.131C15.9625 1.93852 16 1.73047 16 1.52011ZM4.44919 3.04022H4.45199L4.45219 3.04373L4.44919 3.04022Z" fill="#999999"/>
</svg>
