<svg width="4" height="17" viewBox="0 0 4 17" fill="none" xmlns="http://www.w3.org/2000/svg">
<path fill-rule="evenodd" clip-rule="evenodd" d="M2 4.14258C3.1 4.14258 4 3.24258 4 2.14258C4 1.04258 3.1 0.142578 2 0.142578C0.9 0.142578 0 1.04258 0 2.14258C0 3.24258 0.9 4.14258 2 4.14258ZM2 6.14258C0.9 6.14258 0 7.04258 0 8.14258C0 9.24258 0.9 10.1426 2 10.1426C3.1 10.1426 4 9.24258 4 8.14258C4 7.04258 3.1 6.14258 2 6.14258ZM2 12.1426C0.9 12.1426 0 13.0426 0 14.1426C0 15.2426 0.9 16.1426 2 16.1426C3.1 16.1426 4 15.2426 4 14.1426C4 13.0426 3.1 12.1426 2 12.1426Z" fill="#999999"/>
</svg>
